<?xml version="1.0" encoding="utf-8"?>
<!-- Generator: Adobe Illustrator 16.0.0, SVG Export Plug-In . SVG Version: 6.00 Build 0)  -->
<!DOCTYPE svg PUBLIC "-//W3C//DTD SVG 1.1//EN" "http://www.w3.org/Graphics/SVG/1.1/DTD/svg11.dtd">
<svg version="1.1" id="Layer_1" xmlns="http://www.w3.org/2000/svg" xmlns:xlink="http://www.w3.org/1999/xlink" x="0px" y="0px"
	 width="512px" height="512.002px" viewBox="0 0 512 512.002" enable-background="new 0 0 512 512.002" xml:space="preserve">
<g>
	<circle fill="#1669AD" cx="256" cy="256.002" r="256"/>
	<circle fill="#2A81C2" cx="256" cy="256.002" r="203.503"/>
	<path fill="#1669AD" d="M344.678,70.174H236.895V48.916c0-6.301-5.109-11.41-11.41-11.41c-6.303,0-11.41,5.109-11.41,11.41v21.258
		H83.471v203.029h64.758L111.428,424.68c-1.488,6.123,2.271,12.293,8.395,13.781c6.123,1.49,12.293-2.27,13.781-8.393l12.475-51.35
		h158.811l12.475,51.35c1.488,6.123,7.658,9.883,13.781,8.393c6.125-1.488,9.883-7.658,8.395-13.781l-36.801-151.477h41.939h8.623
		V70.174H344.678z M171.713,273.203h42.361V355.9h-62.451L171.713,273.203z M299.346,355.9h-62.451v-82.697h42.359L299.346,355.9z"
		/>
	<path fill="#494A4A" d="M244.588,60.916c0-6.301,5.109-11.41,11.412-11.41l0,0c6.301,0,11.41,5.109,11.41,11.41v313.75
		c0,6.301-5.109,11.41-11.41,11.41l0,0c-6.303,0-11.412-5.109-11.412-11.41V60.916z"/>
	<path fill="#323232" d="M256,49.506c-1.223,0-2.396,0.197-3.5,0.553c4.588,1.479,7.91,5.777,7.91,10.857v313.75
		c0,5.08-3.322,9.379-7.91,10.857c1.104,0.355,2.277,0.553,3.5,0.553c6.301,0,11.41-5.109,11.41-11.41V60.916
		C267.411,54.615,262.301,49.506,256,49.506z"/>
	<path fill="#494A4A" d="M195.51,216.191L141.944,436.68c-1.488,6.123,2.271,12.293,8.395,13.781
		c6.123,1.49,12.293-2.27,13.781-8.393l54.875-225.877H195.51z"/>
	<path fill="#323232" d="M211.995,216.191L157.12,442.068c-0.971,3.998-3.941,6.973-7.588,8.154
		c0.266,0.084,0.531,0.172,0.807,0.238c6.123,1.49,12.293-2.27,13.781-8.393l54.875-225.877H211.995z"/>
	<path fill="#494A4A" d="M316.489,216.191h-23.484l54.875,225.877c1.488,6.123,7.658,9.883,13.781,8.393
		c6.125-1.488,9.883-7.658,8.395-13.781L316.489,216.191z"/>
	<path fill="#323232" d="M370.055,436.68l-53.566-220.488h-6l53.566,220.488c1.465,6.023-2.156,12.084-8.105,13.695
		c1.807,0.498,3.762,0.561,5.711,0.086C367.786,448.973,371.543,442.803,370.055,436.68z"/>
	<rect x="113.987" y="82.174" fill="#E8E9EC" width="261.207" height="203.029"/>
	<rect x="375.194" y="82.174" fill="#CDCCCA" width="8.623" height="203.029"/>
	<polygon fill="#494A4A" points="162.315,390.719 347.69,390.719 343.063,367.9 167.227,367.9 	"/>
	<path fill="#1669AD" d="M191.52,127.242c-0.018-0.018-0.031-0.033-0.051-0.053c-3.529-3.496-6.922-15,5.254-17.148
		c-0.004-0.002-0.008-0.004-0.01-0.006c4.879-0.904,8.576-5.176,8.576-10.316c0-5.799-4.701-10.5-10.5-10.5s-10.5,4.701-10.5,10.5
		c0,1.939,0.537,3.75,1.453,5.311l-0.006-0.002c2.629,5.191,1.041,15.033-12.621,14.26c-0.002,0.002-0.004,0.004-0.004,0.004
		c-0.938-0.08-1.881-0.129-2.838-0.129c-7.922,0-15.164,2.883-20.752,7.65c-0.127,0.09-0.271,0.209-0.443,0.375
		c-2.322,2.236-10.793,2.258-9.713-6.545c-0.002,0.002-0.004,0.004-0.008,0.008c0.404-3.537-1.75-6.971-5.277-8.049
		c-3.979-1.215-8.189,1.023-9.404,5c-1.217,3.979,1.023,8.189,5.002,9.404c1.33,0.406,2.684,0.42,3.945,0.117l-0.002,0.004
		c4.113-0.715,10.531,2.439,7.137,11.648h0.002c-1.602,3.811-2.486,7.994-2.486,12.385c0,14.469,9.604,26.689,22.783,30.648
		c0.074,0.025,0.141,0.049,0.238,0.076c2.162,0.604,4.951,6.133-0.719,8.596c0.006,0.002,0.01,0.004,0.014,0.006
		c-2.27,1.008-3.574,3.514-2.975,6.014c0.678,2.82,3.512,4.559,6.332,3.881s4.557-3.512,3.879-6.332
		c-0.227-0.947-0.713-1.758-1.346-2.41c0.012-0.002,0.023-0.002,0.023-0.002c-1.885-2.217-2.244-7.254,4.488-8.477
		c0.004-0.006,0.004-0.01,0.006-0.018c17.338-0.387,31.275-14.553,31.275-31.982C202.274,141.645,198.114,133.104,191.52,127.242z"
		/>
	<path fill="#E65439" d="M313.333,169.338c0.014-0.021,0.023-0.039,0.037-0.063c2.41-4.344,12.566-10.727,17.93,0.414
		c0-0.004,0.002-0.008,0.004-0.012c2.191,4.451,7.303,6.855,12.254,5.463c5.582-1.568,8.834-7.367,7.266-12.949
		c-1.57-5.584-7.369-8.836-12.951-7.266c-1.869,0.525-3.467,1.531-4.721,2.836v-0.006c-4.285,3.936-14.189,5.07-17.143-8.289
		c-0.004-0.002-0.006-0.002-0.008-0.004c-0.174-0.922-0.383-1.846-0.641-2.768c-2.145-7.625-6.883-13.816-12.982-17.904
		c-0.121-0.098-0.277-0.205-0.482-0.324c-2.781-1.631-5.096-9.779,3.67-11.123c-0.002-0.002-0.004-0.002-0.008-0.006
		c3.514-0.568,6.234-3.572,6.318-7.26c0.094-4.158-3.203-7.604-7.359-7.699c-4.16-0.092-7.607,3.205-7.699,7.361
		c-0.031,1.393,0.324,2.697,0.955,3.832l-0.004-0.002c1.801,3.766,0.504,10.797-9.281,10.023l0,0
		c-4.102-0.508-8.369-0.229-12.598,0.961c-13.926,3.916-23.09,16.471-23.332,30.23c-0.004,0.078-0.01,0.148-0.01,0.25
		c0.004,2.246-4.563,6.426-8.469,1.635c0,0,0,0.01-0.002,0.016c-1.584-1.912-4.35-2.49-6.596-1.234
		c-2.529,1.414-3.436,4.613-2.02,7.143c1.412,2.533,4.613,3.436,7.145,2.021c0.852-0.475,1.5-1.164,1.957-1.949
		c0.004,0.012,0.006,0.023,0.006,0.023c1.625-2.416,6.379-4.123,9.375,2.027h0.02c5.066,16.584,22.477,26.166,39.254,21.447
		C302.379,183.588,309.475,177.271,313.333,169.338z"/>
	<path fill="#774197" d="M235.758,255.326c0.018-0.008,0.033-0.014,0.051-0.023c3.445-1.717,12.73-1.334,11.266,8.133
		c0,0,0.006-0.002,0.008-0.006c-0.555,3.805,1.656,7.582,5.426,8.865c4.254,1.447,8.875-0.828,10.322-5.078
		c1.447-4.256-0.828-8.877-5.08-10.324c-1.424-0.484-2.885-0.543-4.26-0.26l0.004-0.004c-4.463,0.633-11.285-2.988-7.309-12.816
		c0,0-0.002-0.002-0.004-0.004c0.293-0.666,0.566-1.348,0.805-2.049c1.977-5.809,1.668-11.84-0.432-17.127
		c-0.035-0.119-0.088-0.254-0.166-0.42c-1.061-2.262,1.037-8.479,7.225-5.49c-0.002-0.004-0.002-0.006-0.002-0.006
		c2.492,1.176,5.547,0.453,7.219-1.865c1.885-2.615,1.291-6.262-1.32-8.145c-2.615-1.885-6.262-1.293-8.146,1.32
		c-0.631,0.875-0.977,1.865-1.07,2.867l-0.002-0.004c-0.504,3.195-4.416,7.115-10.324,2.328h-0.002
		c-2.395-2.125-5.242-3.818-8.463-4.916c-10.611-3.609-21.971,0.385-28.162,9.064c-0.037,0.047-0.072,0.092-0.117,0.154
		c-0.982,1.438-5.732,2.102-6.125-2.67c-0.002,0.002-0.004,0.004-0.008,0.008c-0.172-1.916-1.684-3.498-3.668-3.684
		c-2.236-0.205-4.219,1.439-4.426,3.678c-0.209,2.236,1.439,4.217,3.676,4.424c0.752,0.072,1.469-0.086,2.104-0.387
		c-0.002,0.012-0.004,0.018-0.004,0.018c2.096-0.828,5.881,0.166,5.096,5.41c0.004,0.002,0.008,0.004,0.012,0.008
		c-4.043,12.811,2.869,26.568,15.652,30.918C222.512,259.619,229.813,258.701,235.758,255.326z"/>
</g>
</svg>
