<?xml version="1.0" encoding="utf-8"?>
<!-- Svg Vector Icons : http://www.onlinewebfonts.com/icon -->
<!DOCTYPE svg PUBLIC "-//W3C//DTD SVG 1.1//EN" "http://www.w3.org/Graphics/SVG/1.1/DTD/svg11.dtd">
<svg version="1.1" xmlns="http://www.w3.org/2000/svg" xmlns:xlink="http://www.w3.org/1999/xlink" x="0px" y="0px" viewBox="0 0 1000 1000" enable-background="new 0 0 1000 1000" xml:space="preserve">
<metadata> Svg Vector Icons : http://www.onlinewebfonts.com/icon </metadata>
<g><path d="M205.9,762c81.9-26.5,183.7-42.2,294.1-42.2c110.4,0,212.2,15.7,294.1,42.2c3.9-35.2,17.8-79.5,49.7-134.3c105-180,105-180,105-180s-225.1,240-330.1,195C516.1,598.7,500,166.3,500,166.3c-16.1,156.7-16.1,432.4-118.7,476.4c-105,45-330.1-195-330.1-195s0,0,105,180C188.2,682.4,202,726.8,205.9,762z"/><path d="M500,752.2c-108.9,0-209.1,16.1-288.3,43.1c5,16.2,8,30.9,9.5,44.3c77.6-25.1,174.1-40,278.8-40c104.6,0,201.2,14.9,278.8,40c1.5-13.3,4.5-28.1,9.5-44.3C709.1,768.3,608.9,752.2,500,752.2z"/><path d="M444.3,215.9c0,30.7,24.9,55.5,55.5,55.5c30.7,0,55.5-24.9,55.5-55.5c0-30.7-24.9-55.5-55.5-55.5C469.1,160.4,444.3,185.3,444.3,215.9z"/><path d="M907.6,445.4c0,22.8,18.4,41.2,41.2,41.2s41.2-18.4,41.2-41.2c0-22.8-18.4-41.2-41.2-41.2S907.6,422.6,907.6,445.4z"/><path d="M10,445.4c0,22.8,18.4,41.2,41.2,41.2c22.8,0,41.2-18.4,41.2-41.2c0-22.8-18.4-41.2-41.2-41.2C28.4,404.2,10,422.6,10,445.4z"/></g>
</svg>