<?xml version="1.0" encoding="UTF-8" standalone="no"?>
<svg width="27px" height="27px" viewBox="0 0 27 27" version="1.1" xmlns="http://www.w3.org/2000/svg" xmlns:xlink="http://www.w3.org/1999/xlink">
    <!-- Generator: Sketch 39.1 (31720) - http://www.bohemiancoding.com/sketch -->
    <title>facebook</title>
    <desc>Created with Sketch.</desc>
    <defs></defs>
    <g id="Page-1" stroke="none" stroke-width="1" fill="none" fill-rule="evenodd" stroke-linecap="round" stroke-linejoin="round">
        <g id="91-facebook" transform="translate(-12.000000, -12.000000)" stroke="#FFFFFF" stroke-width="1.5">
            <g id="facebook" transform="translate(12.000000, 12.000000)">
                <path d="M13.25,11.3889 C13.25,9.0709 15.125,7.1959 17.443,7.1959" id="Stroke-1"></path>
                <path d="M18.7187,7.1958 L18.7187,9.9838" id="Stroke-3"></path>
                <path d="M16.0382,11.3889 C16.0382,10.6119 16.6662,9.9839 17.4432,9.9839" id="Stroke-5"></path>
                <path d="M16.0382,11.3889 L16.0382,12.6259" id="Stroke-7"></path>
                <path d="M13.25,11.3889 L13.25,12.6259" id="Stroke-9"></path>
                <path d="M16.0382,12.6258 L18.7192,12.6258" id="Stroke-11"></path>
                <path d="M10.5695,12.6258 L13.2505,12.6258" id="Stroke-13"></path>
                <path d="M16.0382,15.2516 L18.7192,15.2516" id="Stroke-15"></path>
                <path d="M10.5695,15.2516 L13.2505,15.2516" id="Stroke-17"></path>
                <path d="M18.7187,12.6258 L18.7187,15.2518" id="Stroke-19"></path>
                <path d="M10.5695,12.6258 L10.5695,15.2518" id="Stroke-21"></path>
                <path d="M17.4431,7.1958 L18.7191,7.1958" id="Stroke-23"></path>
                <path d="M17.4431,9.9841 L18.7191,9.9841" id="Stroke-25"></path>
                <path d="M13.25,15.25 L13.25,23.892 C13.25,24.963 12.281,25.759 11.224,25.586 C5.131,24.592 0.514,19.188 0.759,12.761 C1.005,6.328 6.328,1.005 12.761,0.759 C19.883,0.487 25.75,6.188 25.75,13.25 C25.75,19.19 21.6,24.17 16.04,25.43 C15.851,25.476 15.66,25.517 15.468,25.553" id="Stroke-27"></path>
                <path d="M16.0382,15.2516 L16.0382,22.9586" id="Stroke-29"></path>
            </g>
        </g>
    </g>
</svg>