<?xml version="1.0" encoding="UTF-8" standalone="no"?>
<svg width="27px" height="27px" viewBox="0 0 27 27" version="1.1" xmlns="http://www.w3.org/2000/svg" xmlns:xlink="http://www.w3.org/1999/xlink">
    <!-- Generator: Sketch 39.1 (31720) - http://www.bohemiancoding.com/sketch -->
    <title>instagram</title>
    <desc>Created with Sketch.</desc>
    <defs></defs>
    <g id="Page-1" stroke="none" stroke-width="1" fill="none" fill-rule="evenodd">
        <g id="93-instagram" transform="translate(-12.000000, -12.000000)" stroke="#FFFFFF">
            <g id="instagram" transform="translate(12.000000, 12.000000)">
                <path d="M17.2813,19.4403 L9.2183,19.4403 C8.0263,19.4403 7.0593,18.4733 7.0593,17.2813 L7.0593,9.2183 C7.0593,8.0263 8.0263,7.0593 9.2183,7.0593 L17.2813,7.0593 C18.4733,7.0593 19.4403,8.0263 19.4403,9.2183 L19.4403,17.2813 C19.4403,18.4733 18.4733,19.4403 17.2813,19.4403 L17.2813,19.4403 Z" id="Stroke-1" stroke-width="1.5" stroke-linecap="round" stroke-linejoin="round"></path>
                <path d="M19.44,11.28 L3.333,11.28 C2.005,11.28 1.116,9.939 1.6,8.704 C3.444,3.992 8.06,0.673 13.437,0.751 C19.979,0.847 25.472,6.19 25.739,12.727 C26.031,19.865 20.323,25.75 13.25,25.75 C6.35,25.75 0.75,20.15 0.75,13.25" id="Stroke-3" stroke-width="1.5" stroke-linecap="round" stroke-linejoin="round"></path>
                <path d="M15.6429,13.6696 C15.6429,14.9916 14.5719,16.0626 13.2499,16.0626 C11.9289,16.0626 10.8569,14.9916 10.8569,13.6696 C10.8569,12.3476 11.9289,11.2766 13.2499,11.2766 C14.5719,11.2766 15.6429,12.3476 15.6429,13.6696 L15.6429,13.6696 Z" id="Stroke-5" stroke-width="1.5" stroke-linecap="round" stroke-linejoin="round"></path>
                <path d="M17.5541,9.2187 C17.5541,9.3697 17.4321,9.4917 17.2811,9.4917 C17.1301,9.4917 17.0081,9.3697 17.0081,9.2187 C17.0081,9.0677 17.1301,8.9457 17.2811,8.9457 C17.4321,8.9457 17.5541,9.0677 17.5541,9.2187 L17.5541,9.2187 Z" id="Stroke-7" fill="#000000"></path>
            </g>
        </g>
    </g>
</svg>