<?xml version="1.0" encoding="utf-8"?>
<!-- Generator: Adobe Illustrator 16.0.0, SVG Export Plug-In . SVG Version: 6.00 Build 0)  -->
<!DOCTYPE svg PUBLIC "-//W3C//DTD SVG 1.1//EN" "http://www.w3.org/Graphics/SVG/1.1/DTD/svg11.dtd">
<svg version="1.1" id="Layer_1" xmlns="http://www.w3.org/2000/svg" xmlns:xlink="http://www.w3.org/1999/xlink" x="0px" y="0px"
	 width="512px" height="512px" viewBox="0 0 512 512" enable-background="new 0 0 512 512" xml:space="preserve">
<g>
	<circle fill="#1669AD" cx="256" cy="256" r="256"/>
	<path fill="#2A81C2" d="M459.504,256c0,112.393-91.109,203.504-203.504,203.504c-112.391,0-203.502-91.111-203.502-203.504
		c0-112.391,91.111-203.504,203.502-203.504C368.395,52.496,459.504,143.609,459.504,256z"/>
	<path fill="#E8E9EC" d="M269.42,411.695c0,5.885-4.773,10.656-10.656,10.656l0,0c-5.885,0-10.656-4.771-10.656-10.656v-21.895
		c0-5.885,4.771-10.654,10.656-10.654l0,0c5.883,0,10.656,4.77,10.656,10.654V411.695z"/>
	<path fill="#323232" d="M301.75,369.59c0,23.744-19.246,42.988-42.986,42.988l0,0c-23.742,0-42.988-19.244-42.988-42.988v-88.316
		c0-23.74,19.246-42.986,42.988-42.986l0,0c23.74,0,42.986,19.246,42.986,42.986V369.59z"/>
	<path fill="#494A4A" d="M215.775,281.273v88.316c0,23.744,19.246,42.988,42.984,42.988V264.301h-39.498
		C217.021,269.508,215.775,275.244,215.775,281.273z"/>
	<path fill="#DDAE2A" d="M258.764,71.518L258.764,71.518c-58.125,0-105.246,47.119-105.246,105.244
		c0,20.988,7.133,39.947,16.734,56.959c10.297,18.244,19.4,60.049,22.006,80.828c2.775,22.131,30.658,40.023,66.506,40.023l0,0
		c35.848,0,63.73-17.893,66.506-40.023c2.605-20.779,11.707-62.584,22.004-80.828c9.604-17.012,16.734-35.971,16.734-56.959
		C364.008,118.637,316.887,71.518,258.764,71.518z"/>
	<path fill="#EDC848" d="M184.574,146.098c-1.824,0-3.67-0.498-5.328-1.545c-4.67-2.949-6.066-9.125-3.117-13.795
		c18.021-28.547,48.914-45.592,82.635-45.592c5.521,0,10,4.477,10,10s-4.477,10-10,10c-26.816,0-51.387,13.559-65.723,36.27
		C191.139,144.447,187.893,146.098,184.574,146.098z"/>
	<path fill="#E65439" d="M326.086,242.967c0-20.611-16.768-37.379-37.379-37.379c-5.322,0-10.385,1.127-14.973,3.141
		c-4.588-2.014-9.648-3.141-14.971-3.141s-10.385,1.127-14.973,3.141c-4.588-2.014-9.65-3.141-14.973-3.141
		c-20.611,0-37.377,16.768-37.377,37.379c0,18.24,13.137,33.463,30.443,36.725l3.65,47.365c0.303,3.9,3.559,6.863,7.406,6.863
		c0.191,0,0.385-0.008,0.578-0.023c4.094-0.314,7.158-3.889,6.84-7.982l-4.094-53.109c0.426,0.32,0.857,0.631,1.297,0.936
		c2.225,2.816,6.219,3.689,9.449,1.885c0.107-0.059,0.205-0.127,0.313-0.188c0.145-0.08,0.285-0.168,0.426-0.258
		c4.361-2.566,8.082-5.943,11.016-9.883c2.99,4.02,6.789,7.467,11.252,10.047c2.521,1.459,5.539,1.264,7.818-0.24
		c0.088-0.049,0.176-0.09,0.262-0.141c1.102-0.668,2.146-1.398,3.162-2.16l-4.096,53.111c-0.314,4.094,2.748,7.668,6.842,7.982
		c0.193,0.016,0.387,0.023,0.58,0.023c3.844,0,7.104-2.965,7.404-6.863l3.65-47.365C312.947,276.43,326.086,261.207,326.086,242.967
		z M206.309,242.967c0-12.412,10.098-22.51,22.51-22.51c0.043,0,0.084,0.002,0.125,0.004c-4.74,6.266-7.559,14.061-7.559,22.506
		c0,8.232,2.748,16.117,7.57,22.514c-0.018,0-0.031,0.002-0.049,0.002c-0.027-0.002-0.057-0.006-0.088-0.006
		C216.406,265.477,206.309,255.379,206.309,242.967z M243.789,259.764c-4.727-4.23-7.535-10.336-7.535-16.797
		c0-6.668,2.916-12.664,7.537-16.789c4.621,4.125,7.537,10.121,7.537,16.789C251.328,249.451,248.521,255.539,243.789,259.764z
		 M258.764,220.619c-0.043-0.055-0.086-0.105-0.127-0.158c0.041-0.002,0.084-0.004,0.127-0.004c0.041,0,0.082,0.002,0.123,0.004
		C258.846,220.514,258.803,220.564,258.764,220.619z M273.742,259.773c-4.734-4.23-7.545-10.342-7.545-16.807
		c0-6.668,2.918-12.664,7.537-16.789c4.623,4.125,7.539,10.121,7.539,16.789C281.273,249.508,278.514,255.543,273.742,259.773z
		 M288.707,265.477c-0.023,0-0.047,0.004-0.07,0.004c4.814-6.365,7.504-14.191,7.504-22.514c0-8.445-2.818-16.24-7.561-22.506
		c0.043-0.002,0.084-0.004,0.127-0.004c12.412,0,22.51,10.098,22.51,22.51S301.119,265.477,288.707,265.477z"/>
</g>
</svg>
