<?xml version="1.0" encoding="utf-8"?>
<!-- Generator: Adobe Illustrator 16.0.0, SVG Export Plug-In . SVG Version: 6.00 Build 0)  -->
<!DOCTYPE svg PUBLIC "-//W3C//DTD SVG 1.1//EN" "http://www.w3.org/Graphics/SVG/1.1/DTD/svg11.dtd">
<svg version="1.1" id="Layer_1" xmlns="http://www.w3.org/2000/svg" xmlns:xlink="http://www.w3.org/1999/xlink" x="0px" y="0px"
	 width="512px" height="512px" viewBox="0 0 512 512" enable-background="new 0 0 512 512" xml:space="preserve">
<g>
	<circle fill="#1669AD" cx="256" cy="256" r="256"/>
	<circle fill="#2A81C2" cx="255.999" cy="256" r="203.503"/>
	<path fill="#1669AD" d="M353.594,178.051h-21.861l-85.252-64.795v-5.805c0-3.211-2.604-5.813-5.814-5.813s-5.813,2.602-5.813,5.813
		v5.805L149.6,178.051H127.74c-9.566,0-17.322,7.756-17.322,17.322v19.084v174.559v19.082c0,9.568,7.756,17.322,17.322,17.322
		h225.854c9.566,0,17.322-7.754,17.322-17.322v-19.082V214.457v-19.084C370.916,185.807,363.16,178.051,353.594,178.051z
		 M222.26,127.852c-0.959,2.33-1.494,4.879-1.494,7.557c0,10.99,8.91,19.9,19.9,19.9c10.992,0,19.902-8.91,19.902-19.9
		c0-2.678-0.537-5.227-1.496-7.557l66.051,50.199H156.209L222.26,127.852z"/>
	<g>
		<path fill="#E65439" d="M386.248,374.996c0,9.566-7.756,17.322-17.322,17.322H143.074c-9.568,0-17.324-7.756-17.324-17.322
			V181.354c0-9.566,7.756-17.322,17.324-17.322h225.852c9.566,0,17.322,7.756,17.322,17.322V374.996z"/>
		<path fill="#BE3D27" d="M386.248,394.078c0,9.568-7.756,17.322-17.322,17.322H143.074c-9.568,0-17.324-7.754-17.324-17.322
			V200.438c0-9.568,7.756-17.322,17.324-17.322h225.852c9.566,0,17.322,7.754,17.322,17.322V394.078z"/>
		<path fill="#E8E9EC" d="M343.266,209.051H168.734c-7.395,0-13.389,5.992-13.389,13.387v141.414
			c0,7.393,5.994,13.387,13.389,13.387h174.531c7.395,0,13.387-5.994,13.387-13.387V222.438
			C356.652,215.043,350.66,209.051,343.266,209.051z"/>
		<path fill="#E65439" d="M343.266,377.238H168.734c-7.395,0-13.389-5.994-13.389-13.387v8.227c0,7.395,5.994,13.387,13.389,13.387
			h174.531c7.395,0,13.387-5.992,13.387-13.387v-8.227C356.652,371.244,350.66,377.238,343.266,377.238z"/>
		<circle fill="#E8E9EC" cx="255.999" cy="93.432" r="5.813"/>
		<path fill="#1B9D7E" d="M342.406,377.238c0-66.045-26.703-119.586-59.645-119.586s-59.643,53.541-59.643,119.586H342.406z"/>
		<path fill="#3AB49C" d="M273.572,377.238c0-53.891-21.787-97.576-48.666-97.576c-26.877,0-48.666,43.686-48.666,97.576H273.572z"
			/>
		<circle fill="#BE3D27" cx="207.6" cy="235.33" r="18.334"/>
		<rect x="250.186" y="93.432" fill="#E8E9EC" width="11.627" height="25.986"/>
		<path fill="#323232" d="M356.65,175.83c-0.42,0-0.846-0.133-1.207-0.408L256,99.842l-99.443,75.58
			c-0.879,0.67-2.135,0.496-2.803-0.383s-0.498-2.133,0.383-2.803l100.652-76.5c0.715-0.543,1.705-0.543,2.42,0l100.654,76.5
			c0.879,0.67,1.051,1.924,0.383,2.803C357.852,175.557,357.256,175.83,356.65,175.83z"/>
		<circle fill="#BE3D27" cx="255.999" cy="121.389" r="19.901"/>
		<circle fill="#E65439" cx="255.999" cy="131.207" r="7.165"/>
	</g>
</g>
</svg>
