<?xml version="1.0" encoding="UTF-8" standalone="no"?>
<svg width="27px" height="27px" viewBox="0 0 27 27" version="1.1" xmlns="http://www.w3.org/2000/svg" xmlns:xlink="http://www.w3.org/1999/xlink">
    <!-- Generator: Sketch 39.1 (31720) - http://www.bohemiancoding.com/sketch -->
    <title>pinterest</title>
    <desc>Created with Sketch.</desc>
    <defs></defs>
    <g id="Page-1" stroke="none" stroke-width="1" fill="none" fill-rule="evenodd">
        <g id="94-pinterest" transform="translate(-12.000000, -12.000000)" stroke="#000000" stroke-width="1.5">
            <g id="pinterest" transform="translate(12.000000, 12.000000)">
                <path d="M11.34,18.82 C11.52,18.89 11.7,18.95 11.88,19 C12.5,19.18 13.12,19.26 13.73,19.24" id="Stroke-1"></path>
                <path d="M11.79,17.25 L11.79,17.27 L11.78,17.27 L11.34,18.82 L10.162,22.988 C9.815,24.217 8.413,24.851 7.29,24.241 C3.245,22.046 0.556,17.685 0.761,12.718 C1.026,6.313 6.323,1.022 12.728,0.761 C19.866,0.47 25.75,6.177 25.75,13.25 C25.75,20.15 20.15,25.75 13.25,25.75 C12.819,25.75 12.392,25.727 11.972,25.684" id="Stroke-3" stroke-linecap="round" stroke-linejoin="round"></path>
                <path d="M12.84,13.52 L11.79,17.25 C11.09,16.04 10.87,14.55 11.28,13.08 C11.4,12.65 11.85,12.39 12.28,12.52 C12.72,12.64 12.96,13.09 12.84,13.52 L12.84,13.52 Z" id="Stroke-5"></path>
                <path d="M9.2,17.45 C7.77,16.05 7.12,14.02 7.68,12.05 C8.51,9.12 11.74,7.46 14.9,8.35 C18.05,9.25 19.94,12.36 19.11,15.29 C18.75,16.55 17.96,17.57 16.92,18.26 C16.76,18.37 16.6,18.46 16.43,18.55 C15.03,19.27 13.28,18.97 12.22,17.84 C12.14,17.76 12.07,17.67 12,17.58 C11.98,17.56 11.96,17.53 11.95,17.51 C11.89,17.43 11.83,17.35 11.79,17.27 L11.78,17.27 L11.78,17.26" id="Stroke-7" stroke-linecap="round" stroke-linejoin="round"></path>
                <path d="M16.92,18.26 C16.76,18.37 16.6,18.46 16.43,18.55 C15.63,18.98 14.7,19.22 13.73,19.24 C13.73,19.24 12.83,18.53 12.22,17.84 C12.14,17.75 12.06,17.67 12,17.58 C11.98,17.56 11.96,17.53 11.95,17.51 C11.88,17.43 11.83,17.35 11.79,17.27 L11.78,17.27 L11.78,17.26" id="Stroke-9"></path>
            </g>
        </g>
    </g>
</svg>