<?xml version="1.0" encoding="UTF-8" standalone="no"?>
<svg width="27px" height="27px" viewBox="0 0 27 27" version="1.1" xmlns="http://www.w3.org/2000/svg" xmlns:xlink="http://www.w3.org/1999/xlink">
    <!-- Generator: Sketch 39.1 (31720) - http://www.bohemiancoding.com/sketch -->
    <title>twitter</title>
    <desc>Created with Sketch.</desc>
    <defs></defs>
    <g id="Page-1" stroke="none" stroke-width="1" fill="none" fill-rule="evenodd" stroke-linecap="round" stroke-linejoin="round">
        <g id="92-twitter" transform="translate(-12.000000, -12.000000)" stroke="#FFFFFF" stroke-width="1.5">
            <g id="twitter" transform="translate(12.000000, 12.000000)">
                <path d="M19.0397,17.25 L2.9607,17.25 C2.0177,17.25 1.1717,16.605 0.9877,15.68 C0.8657,15.069 0.7897,14.441 0.7617,13.8 C0.4757,7.216 5.5237,1.396 12.0877,0.803 C20.0377,0.084 26.6307,6.829 25.6537,14.823 C24.9617,20.483 20.3507,25.04 14.6837,25.67 C9.6267,26.233 5.0977,23.777 2.6557,19.886" id="Stroke-1"></path>
                <path d="M18.3898,10.1372 L19.8228,10.8252" id="Stroke-3"></path>
                <path d="M19.7908,10.8265 L18.4218,11.7265" id="Stroke-5"></path>
                <path d="M6.6763,11.7453 C7.0703,13.3073 8.1723,14.6723 9.7873,15.3283 C9.2753,16.4703 8.5143,17.4813 7.5423,18.2823 C8.3823,18.5843 9.3013,18.7413 10.2333,18.7413 L10.2353,18.7413 C14.7423,18.7413 18.3903,15.0943 18.3903,10.5873 C18.3903,9.0253 17.1233,7.7583 15.5613,7.7583 C13.9983,7.7583 12.7323,9.0253 12.7323,10.5873 C10.4613,10.5873 8.4523,9.4743 7.2213,7.7643 L7.2153,7.7643 C7.0023,9.0703 7.4003,10.4563 8.4083,11.4643 L8.4813,11.5233 C7.9243,11.6423 7.3533,11.6923 6.7833,11.6693 L6.6763,11.7453 L6.6763,11.7453 Z" id="Stroke-7" fill="#FFFFFF"></path>
            </g>
        </g>
    </g>
</svg>