<?xml version="1.0" encoding="UTF-8" standalone="no"?>
<svg width="27px" height="27px" viewBox="0 0 27 27" version="1.1" xmlns="http://www.w3.org/2000/svg" xmlns:xlink="http://www.w3.org/1999/xlink">
    <!-- Generator: Sketch 39.1 (31720) - http://www.bohemiancoding.com/sketch -->
    <title>youtube</title>
    <desc>Created with Sketch.</desc>
    <defs></defs>
    <g id="Page-1" stroke="none" stroke-width="1" fill="none" fill-rule="evenodd" stroke-linecap="round" stroke-linejoin="round">
        <g id="97-youtube" transform="translate(-12.000000, -12.000000)" stroke="#000000" stroke-width="1.5">
            <g id="youtube" transform="translate(12.000000, 12.000000)">
                <path d="M6.6806,14.6558 L6.6806,10.8348 C6.7836,9.6468 7.7416,8.7138 8.9306,8.6418 L17.5686,8.6418 C18.7586,8.7138 19.7156,9.6468 19.8196,10.8348 L19.8196,15.6658 C19.7156,16.8528 18.7586,17.7858 17.5686,17.8588 L3.0156,17.8598 C2.1616,17.8598 1.3896,17.3008 1.1696,16.4758 C0.7976,15.0828 0.6636,13.5898 0.8056,12.0508 C1.3386,6.2888 5.9246,1.5538 11.6676,0.8478 C19.8426,-0.1572 26.7136,6.7538 25.6386,14.9408 C24.8796,20.7188 20.0416,25.2708 14.2316,25.7128 C9.7946,26.0498 5.8026,24.0788 3.3396,20.8598" id="Stroke-1"></path>
                <path d="M11.8323,13.25 L11.8323,12.168 C11.8323,11.778 12.2463,11.527 12.5923,11.707 L13.6933,12.281 L14.6693,12.789 C15.0423,12.983 15.0423,13.517 14.6693,13.711 L13.6933,14.219 L12.5923,14.793 C12.2463,14.973 11.8323,14.722 11.8323,14.332 L11.8323,13.25 L11.8323,13.25 Z" id="Stroke-3"></path>
            </g>
        </g>
    </g>
</svg>