<?xml version="1.0" standalone="no"?>
<!DOCTYPE svg PUBLIC "-//W3C//DTD SVG 20010904//EN"
 "http://www.w3.org/TR/2001/REC-SVG-20010904/DTD/svg10.dtd">
<svg version="1.0" xmlns="http://www.w3.org/2000/svg"
 width="512.000000pt" height="512.000000pt" viewBox="0 0 512.000000 512.000000"
 preserveAspectRatio="xMidYMid meet">
<metadata>
Created by potrace 1.11, written by Peter Selinger 2001-2013
</metadata>
<g transform="translate(0.000000,512.000000) scale(0.100000,-0.100000)"
fill="#000000" stroke="none">
<path d="M0 2560 l0 -2560 2560 0 2560 0 0 2560 0 2560 -2560 0 -2560 0 0
-2560z m2921 1336 c90 -19 163 -58 220 -117 49 -50 124 -188 111 -201 -7 -7
-262 -68 -282 -68 -5 0 -18 19 -29 43 -58 120 -209 141 -307 43 -47 -47 -62
-87 -71 -197 -12 -151 30 -279 103 -314 125 -59 246 -6 290 129 9 28 18 52 19
54 1 1 15 -2 31 -7 16 -6 82 -26 146 -45 l116 -36 -10 -38 c-33 -119 -123
-234 -222 -282 -77 -38 -143 -50 -265 -50 -189 1 -303 42 -399 144 -104 112
-142 220 -142 406 0 133 17 214 61 301 58 116 176 204 313 234 81 18 235 18
317 1z m-1666 -34 c63 -29 110 -73 143 -137 24 -45 27 -60 27 -160 0 -100 -2
-115 -28 -167 -34 -69 -91 -120 -166 -150 -47 -18 -82 -22 -213 -26 l-158 -4
0 -194 0 -194 -170 0 -170 0 0 530 0 531 343 -3 c333 -3 343 -4 392 -26z m735
-502 l0 -530 -170 0 -170 0 0 530 0 530 170 0 170 0 0 -530z m1812 338 l3
-192 165 192 165 192 224 0 223 0 -192 -200 -193 -201 105 -172 c58 -94 148
-243 201 -329 l97 -158 -208 0 -207 0 -109 211 -108 211 -84 -83 -84 -84 0
-127 0 -128 -165 0 -165 0 0 530 0 530 165 0 165 0 2 -192z m-2008 -1445 c3
-10 37 -144 77 -298 39 -154 74 -285 78 -292 3 -7 42 127 85 297 l79 310 219
0 218 0 0 -535 0 -535 -135 0 -135 0 -2 388 -3 387 -100 -385 -100 -385 -124
0 -125 0 -96 370 c-53 204 -99 377 -102 385 -4 8 -7 -159 -7 -372 l-1 -388
-135 0 -135 0 0 535 0 535 219 0 c201 0 220 -2 225 -17z m1896 -98 l0 -115
-277 -2 -278 -3 -3 -77 -3 -78 258 -2 258 -3 3 -112 3 -113 -261 0 -260 0 0
-100 0 -100 285 0 285 0 0 -125 0 -125 -450 0 -450 0 0 535 0 535 445 0 445 0
0 -115z"/>
<path d="M860 3554 l0 -117 78 5 c90 5 134 25 152 68 14 34 8 93 -12 117 -23
28 -75 43 -148 43 l-70 0 0 -116z"/>
</g>
</svg>
